<?xml version="1.0" encoding="UTF-8"?>
<svg width="1000px" height="1000px" viewBox="0 0 1000 804" version="1.1" xmlns="http://www.w3.org/2000/svg" xmlns:xlink="http://www.w3.org/1999/xlink">
    <title>Logo/Monogram/ExpressVPN_Monogram_Logo_Red</title>
    <g id="Logo/Monogram/ExpressVPN_Monogram_Logo_Red" stroke="none" stroke-width="1" fill="none" fill-rule="evenodd">
        <g id="ExpressVPN/Badge/Brand" fill="#DA3940">
            <path d="M259.804985,804 C147.542382,804 75.9069266,740.907486 75.9069266,653.229927 C75.9069266,624.373412 84.4659263,589.093633 117.60997,517.458177 L1.19015908e-13,517.458177 L107.975074,286.509707 L859.593353,286.509707 C876.711353,286.509707 888.465926,273.695294 888.465926,258.729088 C888.465926,243.762882 876.711353,230.932412 859.593353,230.932412 L251.262044,230.932412 L304.703603,116.550132 C337.847647,45.9745147 409.483103,0 487.525765,0 L743.059279,0 C890.601662,0 999.668691,101.567868 999.668691,234.144044 C999.668691,391.305265 855.321882,517.458177 688.541823,517.458177 L194.592794,517.458177 C179.61053,548.482544 196.728529,573.067588 233.068147,573.067588 L626.525206,573.067588 C691.737397,573.067588 741.983383,619.026045 741.983383,677.847088 C741.983383,745.195015 676.787249,804 603,804 L259.804985,804 L259.804985,804 Z" id="Path"></path>
        </g>
    </g>
</svg>